<?xml version="1.0" standalone="no"?>
<!DOCTYPE svg PUBLIC "-//W3C//DTD SVG 20010904//EN"
 "http://www.w3.org/TR/2001/REC-SVG-20010904/DTD/svg10.dtd">
<svg version="1.0" xmlns="http://www.w3.org/2000/svg"
 width="509.000000pt" height="509.000000pt" viewBox="0 0 509.000000 509.000000"
 preserveAspectRatio="xMidYMid meet">
<metadata>
Created by potrace 1.11, written by Peter Selinger 2001-2013
</metadata>
<g transform="translate(0.000000,509.000000) scale(0.100000,-0.100000)"
fill="#000000" stroke="none">
<path d="M845 4961 c-121 -22 -229 -58 -333 -110 -90 -45 -112 -65 -92 -84 10
-10 11 -9 4 3 -4 8 6 2 24 -15 32 -29 41 -41 23 -31 -5 3 -11 -3 -14 -15 -4
-15 -2 -17 6 -10 9 7 12 2 12 -17 -1 -41 -15 -73 -28 -65 -7 4 -7 0 1 -10 17
-20 10 -33 -29 -52 -20 -11 -29 -23 -29 -40 0 -16 -12 -33 -34 -50 -19 -14
-36 -38 -39 -54 -4 -16 -18 -41 -32 -56 -14 -16 -25 -37 -25 -47 0 -11 -16
-51 -35 -89 -39 -78 -42 -106 -19 -150 8 -17 14 -40 13 -52 -2 -12 5 -34 14
-48 10 -15 16 -40 15 -57 -1 -16 4 -37 11 -46 11 -13 11 -22 3 -41 -14 -29 -7
-52 17 -60 21 -6 21 -40 -1 -61 -12 -12 -17 -13 -23 -3 -6 8 -4 10 5 4 9 -5
11 -4 6 4 -6 9 -11 9 -21 1 -10 -9 -16 -7 -24 8 -6 11 -7 23 -3 28 4 5 -1 2
-10 -5 -16 -12 -15 -19 23 -90 117 -218 305 -429 575 -643 364 -290 611 -403
741 -341 111 52 91 192 -55 398 -84 119 -243 295 -378 420 -318 294 -515 511
-544 601 -7 19 -15 34 -20 34 -8 0 -8 -13 3 -40 11 -31 15 -60 6 -54 -5 3 -9
0 -9 -5 0 -6 6 -11 13 -11 7 -1 4 -7 -7 -15 -10 -8 -24 -12 -30 -9 -6 3 -2 -2
8 -10 18 -14 15 -21 -6 -17 -5 0 -8 -8 -8 -19 0 -11 4 -20 10 -20 5 0 9 -3 9
-7 -1 -5 0 -10 1 -13 1 -3 3 -22 4 -43 1 -29 -1 -34 -10 -22 -6 8 -15 11 -19
7 -5 -4 -5 -2 -1 5 3 6 2 14 -3 17 -5 4 -8 18 -5 31 2 14 0 25 -6 25 -5 0 -10
8 -10 18 0 14 2 15 10 2 6 -9 10 -10 10 -3 0 6 -4 14 -9 17 -10 7 -9 31 2 42
4 4 7 12 7 18 0 6 -5 4 -10 -4 -6 -10 -9 3 -8 40 1 34 7 62 17 74 9 11 12 17
6 14 -6 -4 -9 11 -7 40 2 26 3 55 3 64 0 10 5 21 11 24 7 4 8 2 4 -4 -4 -7 -3
-19 2 -28 7 -13 10 -7 14 23 12 88 86 201 184 281 66 54 124 86 215 119 64 23
91 26 194 27 134 1 206 -14 315 -65 126 -59 275 -194 345 -313 89 -151 145
-437 186 -946 11 -134 18 -889 11 -1165 -6 -235 -33 -521 -67 -724 -2 -13 -7
-45 -11 -70 -10 -73 -63 -291 -84 -349 -76 -203 -191 -322 -419 -435 -83 -41
-86 -42 -190 -42 -119 0 -167 16 -205 68 -18 25 -21 42 -20 125 1 57 11 140
24 202 12 58 25 119 28 135 3 17 6 77 6 135 1 89 -2 110 -20 140 -41 71 -113
97 -218 80 -203 -33 -362 -210 -428 -475 -28 -117 -31 -326 -5 -425 50 -188
129 -267 366 -370 192 -83 348 -100 503 -56 84 25 215 78 379 154 295 137 546
426 781 897 138 276 252 639 273 870 4 39 8 77 11 85 2 8 8 114 14 235 6 138
15 242 25 280 41 155 134 201 389 193 105 -3 140 -8 177 -25 69 -31 120 -108
156 -234 17 -59 18 -117 18 -774 0 -639 2 -719 18 -802 42 -218 108 -384 202
-510 92 -122 310 -294 414 -329 48 -15 56 -15 117 0 98 25 118 38 237 155 191
186 346 383 475 601 12 20 35 78 53 130 50 150 31 220 -59 220 -58 0 -142 -45
-230 -123 -126 -112 -254 -187 -322 -190 -72 -3 -114 65 -149 235 -42 205 -46
274 -46 808 0 441 3 534 18 650 22 162 42 245 68 282 11 15 52 43 92 63 68 33
80 35 227 45 277 19 351 50 338 141 -2 18 -19 32 -66 55 -63 31 -122 78 -122
98 -1 6 -9 21 -20 34 -18 21 -29 23 -79 10 -7 -1 -16 3 -19 11 -2 8 0 11 5 8
15 -10 34 38 20 52 -6 6 -8 14 -4 18 4 4 13 1 20 -7 10 -10 9 -11 -3 -5 -13 8
-13 6 -1 -8 7 -9 10 -25 7 -34 -6 -17 -5 -17 8 -1 11 15 10 27 -8 80 -12 35
-25 66 -29 69 -5 3 -8 8 -6 10 1 2 -2 27 -6 54 -4 28 -9 59 -11 70 -2 11 -6
99 -9 195 -10 320 -78 592 -186 751 -96 142 -274 240 -529 293 -174 35 -772
48 -959 20 -289 -43 -460 -121 -501 -230 -29 -76 -2 -132 75 -153 83 -22 144
-16 535 59 159 31 172 32 352 27 180 -5 189 -6 232 -32 57 -33 78 -59 121
-150 58 -124 80 -200 154 -560 100 -478 114 -591 87 -680 -13 -44 -25 -51
-156 -82 -99 -23 -669 -30 -805 -9 -203 31 -245 56 -285 169 -20 54 -23 92
-30 302 -9 276 -26 394 -75 531 -132 370 -483 658 -940 770 -173 43 -283 54
-525 53 -170 0 -250 -5 -325 -18z m3170 -300 c29 -17 85 -112 85 -142 0 -8 15
-52 33 -99 37 -92 83 -268 90 -339 3 -25 0 -55 -6 -68 -9 -21 -11 -21 -24 -5
-12 15 -12 14 -5 -8 16 -46 7 -88 -25 -120 -24 -23 -30 -26 -29 -13 0 11 -6
18 -19 18 -11 0 -26 4 -34 9 -10 6 -12 5 -7 -2 4 -7 5 -12 2 -12 -3 0 -10 10
-17 21 -9 17 -8 20 3 13 7 -4 5 2 -4 13 -10 11 -18 26 -18 33 0 34 -44 172
-61 192 -11 12 -17 28 -15 35 3 7 1 12 -3 10 -5 -1 -8 1 -7 4 0 4 -7 15 -16
25 -9 11 -20 31 -23 47 -4 15 -11 27 -16 27 -5 0 -8 3 -7 8 1 4 -4 18 -12 32
-16 28 -17 38 -26 133 -6 67 -5 68 14 58 27 -14 28 -14 29 8 2 24 32 71 45 71
6 0 3 11 -6 25 -15 22 -15 25 2 34 25 15 43 13 77 -8z m-3475 -371 c0 -5 -4
-10 -10 -10 -5 0 -10 5 -10 10 0 6 5 10 10 10 6 0 10 -4 10 -10z m3848 -32
c-2 -7 8 -12 24 -12 24 1 26 -1 17 -23 -12 -33 -11 -37 5 -24 19 16 37 -8 30
-40 -4 -16 -3 -20 4 -11 7 11 11 11 19 0 15 -20 24 -50 13 -43 -6 3 -10 2 -10
-3 0 -6 7 -13 16 -16 9 -4 14 -13 10 -22 -3 -8 -2 -13 3 -10 8 5 21 -78 26
-171 2 -23 6 -47 11 -54 4 -7 3 -10 -4 -6 -6 5 -8 0 -5 -13 3 -11 10 -23 16
-27 6 -4 7 -1 2 7 -5 9 -4 11 3 6 9 -5 8 -14 -4 -31 -9 -14 -11 -26 -5 -29 5
-3 7 -14 5 -24 -3 -9 1 -25 8 -35 13 -18 14 -17 14 2 0 11 -3 18 -7 15 -4 -2
-6 4 -4 13 2 10 4 23 4 28 1 6 5 4 10 -4 5 -8 8 -23 6 -33 -2 -10 1 -18 6 -18
6 0 9 -6 6 -12 -2 -7 0 -21 5 -32 7 -13 7 -16 -1 -12 -6 4 -11 2 -11 -3 0 -6
5 -11 11 -11 8 0 8 -5 -1 -15 -7 -8 -16 -12 -21 -9 -5 3 -9 1 -9 -5 0 -5 5
-12 10 -14 6 -3 5 -4 -2 -3 -7 1 -22 -9 -33 -22 -16 -19 -22 -21 -22 -9 0 9 4
14 8 11 4 -2 10 0 13 5 7 10 -22 24 -34 16 -5 -3 -16 7 -23 22 -30 58 -90 254
-107 345 -6 29 -12 64 -15 78 -14 70 -15 101 -3 94 10 -6 11 -5 1 7 -10 12
-10 18 0 29 6 7 7 10 1 7 -6 -4 -10 7 -10 28 0 18 4 31 7 29 4 -2 9 5 12 16 3
11 1 23 -4 26 -5 3 -7 10 -4 15 9 13 15 11 13 -3z m-3818 -294 c-9 -22 -8 -25
5 -20 22 8 18 -2 -6 -15 -17 -9 -20 -8 -14 2 6 9 3 10 -10 5 -18 -7 -18 -6 0
14 10 11 14 20 9 20 -5 0 -2 5 6 10 21 13 21 13 10 -16z m1603 -138 c3 3 14
-10 25 -28 46 -77 110 -596 113 -928 1 -122 -15 -304 -32 -356 -13 -42 -63
-53 -85 -19 -8 13 -14 27 -12 31 1 5 -3 18 -9 30 -7 11 -12 29 -13 40 -1 33
-29 317 -35 354 -3 19 -14 123 -25 230 -11 107 -24 233 -30 280 -19 163 -23
269 -10 285 6 8 9 23 6 33 -11 33 41 66 80 51 12 -4 24 -6 27 -3z m-1923 -148
c0 -5 4 -7 9 -3 5 3 12 1 16 -4 3 -6 -4 -8 -16 -6 -28 5 -46 22 -24 22 8 0 15
-4 15 -9z m4371 -141 c-6 -8 -7 -18 -3 -22 4 -5 1 -5 -6 -1 -10 6 -10 11 -1
22 6 8 14 14 16 14 3 0 0 -6 -6 -13z m-45 -49 l-17 -33 7 30 c3 17 7 36 7 43
0 8 4 9 10 3 7 -7 4 -21 -7 -43z m68 -2 c-15 -11 -16 -17 -6 -29 10 -11 9 -17
-5 -28 -11 -9 -14 -10 -9 -1 4 6 3 12 -3 12 -5 0 -11 -3 -14 -7 -2 -5 -2 -2 0
6 2 7 -2 20 -9 28 -6 8 -7 13 -2 12 19 -3 35 1 30 9 -2 4 5 9 16 9 19 2 20 1
2 -11z m74 -124 c10 -15 11 -22 3 -22 -6 0 -16 10 -22 23 -9 22 -10 22 -5 0 2
-12 -2 -24 -10 -27 -9 -3 -11 0 -7 11 5 11 3 14 -6 9 -9 -6 -9 -3 1 13 15 25
26 23 46 -7z m-914 -1412 c3 -19 8 -84 11 -145 10 -193 31 -365 85 -682 21
-119 19 -134 -13 -170 -15 -17 -23 -20 -34 -12 -7 6 -13 8 -13 3 0 -4 -12 3
-26 17 -48 45 -117 224 -154 402 -18 82 -22 136 -22 277 0 96 3 195 7 220 3
25 7 54 8 66 4 45 33 61 109 60 34 -1 37 -3 42 -36z m-3103 -1087 c1 -21 1
-41 0 -45 -1 -8 21 -12 44 -9 14 1 35 -57 35 -98 0 -19 4 -30 10 -26 6 4 10
-7 10 -24 0 -18 5 -31 13 -31 8 0 7 -4 -3 -10 -23 -15 -29 -12 -25 10 2 13 -2
20 -11 20 -8 0 -14 -8 -14 -17 -1 -16 -2 -15 -12 2 -6 11 -18 24 -25 28 -39
23 -74 172 -52 215 18 33 29 27 30 -15z"/>
<path d="M3900 4506 c0 -2 8 -10 18 -17 15 -13 16 -12 3 4 -13 16 -21 21 -21
13z"/>
<path d="M4140 3890 c0 -5 7 -7 15 -4 8 4 15 8 15 10 0 2 -7 4 -15 4 -8 0 -15
-4 -15 -10z"/>
<path d="M4410 4223 c0 -15 -2 -16 -10 -3 -16 24 -11 2 6 -31 8 -17 13 -37 10
-45 -3 -8 -3 -14 0 -14 2 0 9 10 14 23 8 20 9 21 10 2 1 -18 2 -17 11 4 6 16
6 28 0 34 -7 7 -13 4 -17 -7 -10 -26 -25 2 -17 31 3 13 2 23 -1 23 -3 0 -6 -8
-6 -17z"/>
<path d="M4376 4184 c-3 -9 -4 -19 -1 -22 3 -3 5 1 5 9 0 11 2 11 10 -1 5 -8
10 -10 10 -5 0 6 -4 16 -9 23 -6 11 -10 10 -15 -4z"/>
<path d="M4582 3625 c-1 -13 2 -27 7 -30 6 -3 8 6 7 20 -4 34 -11 40 -14 10z"/>
<path d="M4551 3597 c-8 -10 -7 -14 2 -14 8 0 14 6 14 14 0 7 -1 13 -2 13 -2
0 -8 -6 -14 -13z"/>
<path d="M4610 3466 c0 -2 8 -10 18 -17 15 -13 16 -12 3 4 -13 16 -21 21 -21
13z"/>
<path d="M440 4725 c-6 -8 -10 -19 -8 -24 1 -6 8 1 15 14 13 28 11 31 -7 10z"/>
<path d="M436 4672 c-3 -5 1 -9 9 -9 8 0 12 4 9 9 -3 4 -7 8 -9 8 -2 0 -6 -4
-9 -8z"/>
<path d="M521 4188 c17 -34 19 -34 17 -5 -1 15 -8 27 -16 27 -10 0 -10 -5 -1
-22z"/>
<path d="M501 4064 c0 -11 3 -14 6 -6 3 7 2 16 -1 19 -3 4 -6 -2 -5 -13z"/>
<path d="M514 3883 c2 -9 8 -18 15 -19 6 -1 7 0 1 3 -5 2 -8 9 -5 13 3 5 1 11
-4 14 -5 4 -8 -2 -7 -11z"/>
<path d="M632 2499 c-90 -17 -145 -72 -146 -149 -2 -96 70 -169 208 -213 58
-18 93 -22 191 -21 220 1 345 49 345 133 0 40 -78 105 -192 161 -153 74 -304
107 -406 89z"/>
</g>
</svg>
