<?xml version="1.0" standalone="no"?>
<!DOCTYPE svg PUBLIC "-//W3C//DTD SVG 20010904//EN"
 "http://www.w3.org/TR/2001/REC-SVG-20010904/DTD/svg10.dtd">
<svg version="1.0" xmlns="http://www.w3.org/2000/svg"
 width="384.000000pt" height="384.000000pt" viewBox="0 0 384.000000 384.000000"
 preserveAspectRatio="xMidYMid meet">
<metadata>
Created by potrace 1.14, written by Peter Selinger 2001-2017
</metadata>
<g transform="translate(0.000000,384.000000) scale(0.100000,-0.100000)"
fill="#000000" stroke="none">
<path d="M540 3779 c-97 -28 -244 -93 -280 -124 -106 -93 -185 -184 -212 -243
-42 -92 -42 -91 -44 -250 -1 -140 9 -215 36 -247 6 -7 10 -17 9 -21 -4 -17 13
-64 24 -64 6 0 8 -3 5 -6 -9 -8 57 -128 117 -215 74 -105 308 -338 395 -394
19 -13 44 -32 56 -43 70 -66 308 -205 375 -218 171 -33 265 32 252 176 -4 50
-43 139 -79 181 -8 8 -14 21 -14 27 0 7 -4 12 -8 12 -5 0 -24 21 -43 48 -18
26 -159 171 -311 323 -153 152 -278 284 -278 293 0 9 -4 16 -9 16 -16 0 -61
106 -62 146 -2 47 30 120 72 169 42 47 144 103 227 124 56 14 124 20 135 11 1
-1 11 -3 22 -4 128 -17 263 -94 341 -195 21 -29 37 -54 34 -56 -3 -1 2 -11 11
-21 13 -16 56 -133 51 -141 0 -2 5 -24 13 -51 8 -27 17 -66 19 -88 7 -53 15
-104 21 -134 8 -36 15 -112 21 -215 2 -49 8 -146 12 -215 18 -298 0 -925 -33
-1130 -7 -44 -14 -94 -20 -142 -2 -21 -9 -57 -16 -80 -6 -24 -13 -50 -14 -58
-13 -62 -26 -112 -36 -136 -7 -16 -13 -31 -13 -34 -6 -24 -56 -106 -81 -132
-43 -45 -63 -60 -131 -98 -33 -17 -63 -35 -69 -38 -5 -4 -12 -7 -15 -8 -3 0
-17 -6 -32 -12 -55 -23 -176 2 -179 37 -5 55 -3 94 9 156 8 39 15 79 17 90 2
11 4 20 5 20 2 0 6 58 10 145 4 93 -19 147 -82 191 -26 19 -45 23 -117 24 -77
1 -92 -2 -144 -29 -31 -16 -57 -33 -57 -38 0 -4 -6 -8 -12 -8 -39 0 -167 -184
-183 -261 -2 -8 -10 -39 -19 -69 -12 -40 -15 -87 -13 -194 5 -191 23 -242 124
-344 40 -40 76 -71 80 -70 4 1 41 -15 80 -35 40 -21 74 -37 75 -36 2 0 10 -2
18 -5 120 -39 252 -47 355 -21 81 21 350 134 365 153 3 4 17 14 32 22 108 61
307 275 392 421 11 19 38 66 61 104 22 39 51 93 64 120 13 28 27 58 32 68 34
65 131 340 144 406 2 9 8 34 13 56 6 22 13 67 17 100 4 32 9 63 12 68 3 5 7
68 10 140 7 234 10 263 31 310 29 66 50 75 186 81 69 3 93 1 156 -15 28 -7 66
-71 87 -148 4 -14 8 -264 9 -556 0 -291 3 -548 7 -570 4 -22 10 -58 13 -80 3
-22 12 -59 20 -82 7 -23 15 -52 18 -65 7 -36 35 -98 74 -162 50 -84 83 -120
197 -214 83 -69 96 -79 155 -111 35 -19 124 -23 178 -8 54 14 114 62 218 171
129 136 165 176 159 176 -2 0 12 17 30 37 19 21 35 41 35 44 0 3 11 19 25 35
14 16 25 34 25 41 0 7 6 16 13 20 38 24 103 196 106 279 2 56 -1 65 -28 96
-27 31 -37 35 -82 37 -65 2 -134 -30 -203 -95 -26 -24 -51 -44 -56 -44 -5 0
-10 -3 -12 -7 -8 -19 -139 -93 -163 -93 -7 0 -47 105 -50 133 -11 99 -16 135
-21 158 -15 76 -26 706 -13 715 4 2 6 21 4 41 -1 21 1 65 6 98 15 114 21 160
23 186 5 61 33 98 86 114 56 17 98 24 155 25 74 2 130 6 130 9 0 2 9 4 20 6
78 15 145 76 145 131 0 34 -52 90 -107 118 -22 11 -42 35 -60 69 -15 28 -27
54 -28 57 0 3 -9 28 -18 56 -24 70 -27 86 -33 189 -8 158 -13 219 -18 255 -9
58 -27 144 -33 160 -4 8 -7 17 -8 20 -41 137 -79 211 -138 270 -71 72 -86 81
-227 150 -15 7 -74 22 -85 21 -2 0 -23 6 -45 14 -61 21 -173 28 -495 29 -273
0 -370 -6 -405 -24 -8 -4 -29 -10 -46 -13 -44 -7 -104 -29 -104 -39 0 -4 -8
-8 -18 -8 -28 0 -118 -93 -133 -137 -7 -21 -14 -39 -15 -41 -1 -2 -29 17 -61
42 -32 25 -64 46 -70 46 -7 0 -13 3 -13 8 0 4 -25 18 -55 31 -30 13 -55 27
-55 31 0 4 -6 7 -12 7 -7 1 -38 11 -68 22 -30 12 -64 23 -75 26 -46 10 -62 13
-100 23 -22 6 -53 14 -70 18 -16 4 -145 8 -285 9 l-255 3 -105 -29z m2173
-334 c46 -30 134 -252 152 -385 2 -14 4 -25 5 -25 1 0 3 -11 4 -25 2 -14 6
-34 9 -45 3 -11 9 -33 12 -50 3 -16 11 -59 19 -95 8 -36 12 -68 9 -72 -2 -5 1
-8 7 -8 6 0 8 -4 5 -10 -3 -5 -3 -15 1 -22 4 -7 8 -21 9 -32 1 -12 6 -43 10
-71 8 -48 9 -80 6 -117 -1 -19 -26 -35 -63 -42 -13 -3 -23 -5 -23 -6 0 -14
-487 -21 -575 -8 -131 19 -154 31 -175 85 -21 55 -26 100 -27 272 0 73 -5 151
-9 172 -5 22 -11 56 -14 77 -12 83 -107 298 -137 310 -4 2 -8 10 -8 18 0 8 -5
14 -12 14 -6 0 -8 3 -4 7 4 4 33 8 64 9 56 1 131 10 163 20 10 3 30 6 45 9 16
2 49 8 74 14 25 5 58 12 74 15 16 3 31 7 34 10 3 3 76 4 163 1 124 -3 163 -7
182 -20z"/>
<path d="M475 1943 c-46 -9 -82 -28 -117 -61 -20 -19 -35 -39 -32 -44 3 -4 1
-8 -4 -8 -13 0 -14 -90 -1 -124 19 -46 96 -112 164 -140 55 -22 71 -24 190
-22 175 4 219 16 278 78 23 24 27 36 26 74 -2 36 -10 52 -39 82 -20 20 -51 46
-70 56 -19 11 -37 22 -40 26 -3 4 -18 12 -35 18 -16 6 -54 19 -82 30 -75 29
-187 45 -238 35z"/>
</g>
</svg>
